<svg width="32" height="32" viewBox="0 0 32 32" fill="none" xmlns="http://www.w3.org/2000/svg">
<path d="M30.4004 23.2002C30.4003 24.5256 29.3254 25.5996 28 25.5996H4C2.67458 25.5996 1.59971 24.5256 1.59961 23.2002V13.5996H30.4004V23.2002ZM6 20.4502C5.58579 20.4502 5.25 20.786 5.25 21.2002C5.25011 21.6143 5.58585 21.9502 6 21.9502H8.40039C8.81436 21.95 9.15029 21.6142 9.15039 21.2002C9.15039 20.7861 8.81442 20.4504 8.40039 20.4502H6ZM12.4004 20.4502C11.9862 20.4502 11.6504 20.786 11.6504 21.2002C11.6505 21.6143 11.9862 21.9502 12.4004 21.9502H18C18.414 21.95 18.7499 21.6142 18.75 21.2002C18.75 20.7861 18.414 20.4504 18 20.4502H12.4004ZM28 6.40039C29.3254 6.40039 30.4003 7.47441 30.4004 8.7998V9.59961H1.59961V8.7998C1.59971 7.47441 2.67458 6.40039 4 6.40039H28Z" fill="#0F172A"/>
</svg>
