<svg width="34" height="32" viewBox="0 0 34 32" fill="none" xmlns="http://www.w3.org/2000/svg">
<path d="M15.7875 0.508955C16.1701 -0.16969 17.1473 -0.169691 17.5298 0.508953L22.3059 8.98259C22.4486 9.23577 22.6944 9.41434 22.9793 9.47182L32.5141 11.3957C33.2777 11.5497 33.5797 12.4792 33.0525 13.0527L26.4695 20.2135C26.2728 20.4275 26.1789 20.7164 26.2123 21.0051L27.329 30.6677C27.4185 31.4416 26.6278 32.016 25.9195 31.6918L17.0749 27.6438C16.8106 27.5229 16.5068 27.5229 16.2425 27.6438L7.39791 31.6918C6.68955 32.016 5.89892 31.4416 5.98835 30.6677L7.10509 21.0051C7.13846 20.7164 7.04458 20.4275 6.84789 20.2135L0.264875 13.0527C-0.262351 12.4792 0.0396428 11.5497 0.803275 11.3957L10.3381 9.47182C10.623 9.41434 10.8687 9.23577 11.0114 8.98259L15.7875 0.508955Z" fill="#FFCA35"/>
</svg>
