<svg width="42" height="42" viewBox="0 0 42 42" fill="none" xmlns="http://www.w3.org/2000/svg">
<rect width="42" height="42" rx="21" fill="white"/>
<path d="M31 32.25V29.75C31 28.4239 30.4732 27.1521 29.5355 26.2145C28.5979 25.2768 27.3261 24.75 26 24.75H16C14.6739 24.75 13.4021 25.2768 12.4645 26.2145C11.5268 27.1521 11 28.4239 11 29.75V32.25M26 14.75C26 17.5114 23.7614 19.75 21 19.75C18.2386 19.75 16 17.5114 16 14.75C16 11.9886 18.2386 9.75 21 9.75C23.7614 9.75 26 11.9886 26 14.75Z" stroke="#C1272D" stroke-width="2.5" stroke-linecap="round" stroke-linejoin="round"/>
</svg>
