<svg width="416" height="104" viewBox="0 0 416 104" fill="none" xmlns="http://www.w3.org/2000/svg">
<path opacity="0.1" fill-rule="evenodd" clip-rule="evenodd" d="M0.923828 69.9297C0.923828 69.9297 17.2434 67.4842 35.7978 73.3593C71.087 84.5333 73.1002 64.0709 86.1858 54.2044C98.1578 45.1777 108.073 50.6852 121.403 61.7243C131.234 69.866 145.562 83.5329 160.4 81.3327C173.964 79.3215 183.579 63.2922 202.38 59.2156C217.28 55.9848 229.39 64.8609 246.548 61.7243C269.824 57.4692 280.221 32.419 296.857 32.419C317.389 32.419 331.845 11.2324 350.524 11.2324C369.092 11.2324 371.612 23.6906 391.924 32.419C407.452 39.0919 414.924 32.419 414.924 32.419V103.924H0.923828V69.9297Z" fill="url(#paint0_linear_79_951)"/>
<path d="M0.923828 58.822C0.923828 58.822 17.2434 56.4118 35.7978 62.2018C71.087 73.2141 73.1002 53.048 86.1858 43.3243C98.1578 34.4282 108.073 39.856 121.403 50.7353C131.234 58.7592 145.562 72.2282 160.4 70.0599C173.964 68.0778 183.579 52.2805 202.38 48.263C217.28 45.0788 229.39 53.8265 246.548 50.7353C269.824 46.5418 280.221 21.8542 296.857 21.8542C317.389 21.8542 331.845 0.923828 350.524 0.923828C369.092 0.923828 370.079 13.2522 390.39 21.8542C405.919 28.4305 414.924 21.8542 414.924 21.8542" stroke="#1B59F8" stroke-width="1.84723" stroke-linecap="round" stroke-linejoin="round"/>
<defs>
<linearGradient id="paint0_linear_79_951" x1="75.7443" y1="58.2645" x2="75.7443" y2="103.924" gradientUnits="userSpaceOnUse">
<stop stop-color="#3D3387"/>
<stop offset="1" stop-color="white" stop-opacity="0.01"/>
</linearGradient>
</defs>
</svg>
